# This file uses centimeters as units for non-parametric coordinates.

mtllib ClearBoxWater.mtl
g default
v 3.000000 1.000000 3.000000
v 3.000000 1.000000 -3.000000
v -3.000000 1.000000 -3.000000
v -3.000000 1.000000 3.000000
v 3.000000 1.000000 0.000000
v -3.000000 1.000000 0.000000
v 0.000000 1.000000 0.000000
v 3.000000 1.000000 1.500000
v 3.000000 1.000000 -1.500000
v 0.000000 1.000000 -3.000000
v -3.000000 1.000000 -1.500000
v -3.000000 1.000000 1.500000
v 0.000000 1.000000 3.000000
vt 0.500000 0.008134
vt 0.991865 0.008134
vt 0.991865 0.254067
vt 0.500000 0.500000
vt 0.991865 0.500000
vt 0.991865 0.745933
vt 0.008134 0.254067
vt 0.008134 0.008134
vt 0.991865 0.991865
vt 0.500000 0.991865
vt 0.008134 0.745933
vt 0.008134 0.500000
vt 0.008134 0.991865
vn 0.000000 1.000000 0.000000
vn 0.000000 1.000000 0.000000
vn 0.000000 1.000000 0.000000
vn 0.000000 1.000000 0.000000
vn 0.000000 1.000000 0.000000
vn 0.000000 1.000000 0.000000
vn 0.000000 1.000000 0.000000
vn 0.000000 1.000000 0.000000
vn 0.000000 1.000000 0.000000
vn 0.000000 1.000000 0.000000
vn 0.000000 1.000000 0.000000
vn 0.000000 1.000000 0.000000
vn 0.000000 1.000000 0.000000
vn 0.000000 1.000000 0.000000
vn 0.000000 1.000000 0.000000
vn 0.000000 1.000000 0.000000
vn 0.000000 1.000000 0.000000
vn 0.000000 1.000000 0.000000
vn 0.000000 1.000000 0.000000
vn 0.000000 1.000000 0.000000
vn 0.000000 1.000000 0.000000
vn 0.000000 1.000000 0.000000
vn 0.000000 1.000000 0.000000
vn 0.000000 1.000000 0.000000
s off
g polySurface14 ClearBoxWater
usemtl blinn1SG
f 13/1/1 1/2/2 8/3/3 7/4/4
f 8/3/5 5/5/6 9/6/7 7/4/8
f 9/6/9 2/9/10 10/10/11 7/4/12
f 10/10/13 3/13/14 11/11/15 7/4/16
f 11/11/17 6/12/18 12/7/19 7/4/20
f 12/7/21 4/8/22 13/1/23 7/4/24
