# This file uses centimeters as units for non-parametric coordinates.

mtllib WallCross.mtl
g default
v 1.000000 12.115881 -3.000000
v 3.000000 12.115881 -1.000000
v 3.000000 3.000000 -1.000000
v 1.000000 3.000000 -3.000000
v 2.000000 7.557940 -2.000000
v 2.000000 12.115881 -2.000000
v 3.000000 7.557940 -1.000000
v 2.000000 3.000000 -2.000000
v 1.000000 7.557940 -3.000000
vt 0.368521 0.609917
vt 0.368521 0.870347
vt 0.200104 0.870347
vt 0.200104 0.609917
vt 0.031686 0.870347
vt 0.031686 0.609917
vt 0.200104 0.349486
vt 0.368521 0.349486
vt 0.031686 0.349486
vn 0.707107 0.000000 -0.707107
vn 0.707107 0.000000 -0.707107
vn 0.707107 0.000000 -0.707107
vn 0.707107 0.000000 -0.707107
vn 0.707107 -0.000000 -0.707107
vn 0.707107 -0.000000 -0.707107
vn 0.707107 -0.000000 -0.707107
vn 0.707107 -0.000000 -0.707107
vn 0.707107 0.000000 -0.707107
vn 0.707107 0.000000 -0.707107
vn 0.707107 0.000000 -0.707107
vn 0.707107 0.000000 -0.707107
vn 0.707107 0.000000 -0.707107
vn 0.707107 0.000000 -0.707107
vn 0.707107 0.000000 -0.707107
vn 0.707107 0.000000 -0.707107
s off
g polySurface15 WallCross
usemtl blinn1SG
f 9/1/1 1/2/2 6/3/3 5/4/4
f 6/3/5 2/5/6 7/6/7 5/4/8
f 7/6/9 3/9/10 8/7/11 5/4/12
f 8/7/13 4/8/14 9/1/15 5/4/16
g default
v 1.000000 12.115881 -3.000000
v 3.000000 12.950584 -3.000000
v 3.000000 12.115881 -1.000001
v 2.302562 12.368430 -2.302562
v 2.000000 12.533233 -3.000000
v 3.000000 12.533233 -2.000000
v 2.000000 12.115881 -2.000001
vt 0.172264 0.465433
vt 0.303154 0.465433
vt 0.283738 0.594875
vt 0.250739 0.510572
vt 0.237709 0.465433
vt 0.293446 0.530154
vt 0.228001 0.530154
vn 0.359417 -0.861185 -0.359417
vn 0.359417 -0.861185 -0.359417
vn 0.359417 -0.861185 -0.359417
vn 0.359417 -0.861185 -0.359417
vn 0.359417 -0.861184 -0.359418
vn 0.359417 -0.861184 -0.359418
vn 0.359417 -0.861184 -0.359418
vn 0.359417 -0.861184 -0.359418
vn 0.359417 -0.861184 -0.359418
vn 0.359417 -0.861184 -0.359418
vn 0.359417 -0.861184 -0.359418
vn 0.359417 -0.861184 -0.359418
s off
g WallCross polySurface14
usemtl blinn1SG
f 16/16/17 10/10/18 14/14/19 13/13/20
f 14/14/21 11/11/22 15/15/23 13/13/24
f 15/15/25 12/12/26 16/16/27 13/13/28
g default
v -1.000000 12.115881 3.000000
v -3.000000 12.115881 1.000000
v -3.000000 3.000000 1.000000
v -1.000000 3.000000 3.000000
v -2.000000 7.557940 2.000000
v -2.000000 12.115881 2.000000
v -3.000000 7.557940 1.000000
v -2.000000 3.000000 2.000000
v -1.000000 7.557940 3.000000
vt 0.368521 0.609917
vt 0.368521 0.870347
vt 0.200104 0.870347
vt 0.200104 0.609917
vt 0.031686 0.870347
vt 0.031686 0.609917
vt 0.200104 0.349486
vt 0.368521 0.349486
vt 0.031686 0.349486
vn -0.707107 0.000000 0.707107
vn -0.707107 0.000000 0.707107
vn -0.707107 0.000000 0.707107
vn -0.707107 0.000000 0.707107
vn -0.707107 -0.000000 0.707107
vn -0.707107 -0.000000 0.707107
vn -0.707107 -0.000000 0.707107
vn -0.707107 -0.000000 0.707107
vn -0.707107 0.000000 0.707107
vn -0.707107 0.000000 0.707107
vn -0.707107 0.000000 0.707107
vn -0.707107 0.000000 0.707107
vn -0.707107 0.000000 0.707107
vn -0.707107 0.000000 0.707107
vn -0.707107 0.000000 0.707107
vn -0.707107 0.000000 0.707107
s off
g WallCross polySurface16
usemtl blinn1SG
f 25/17/29 17/18/30 22/19/31 21/20/32
f 22/19/33 18/21/34 23/22/35 21/20/36
f 23/22/37 19/25/38 24/23/39 21/20/40
f 24/23/41 20/24/42 25/17/43 21/20/44
g default
v -1.000000 12.115881 3.000000
v -3.000000 12.950584 3.000000
v -3.000000 12.115881 1.000001
v -2.302562 12.368430 2.302562
v -2.000000 12.533233 3.000000
v -3.000000 12.533233 2.000000
v -2.000000 12.115881 2.000001
vt 0.172264 0.465433
vt 0.303154 0.465433
vt 0.283738 0.594875
vt 0.250739 0.510572
vt 0.237709 0.465433
vt 0.293446 0.530154
vt 0.228001 0.530154
vn -0.359417 -0.861185 0.359417
vn -0.359417 -0.861185 0.359417
vn -0.359417 -0.861185 0.359417
vn -0.359417 -0.861185 0.359417
vn -0.359417 -0.861184 0.359418
vn -0.359417 -0.861184 0.359418
vn -0.359417 -0.861184 0.359418
vn -0.359417 -0.861184 0.359418
vn -0.359417 -0.861184 0.359418
vn -0.359417 -0.861184 0.359418
vn -0.359417 -0.861184 0.359418
vn -0.359417 -0.861184 0.359418
s off
g WallCross polySurface17
usemtl blinn1SG
f 32/32/45 26/26/46 30/30/47 29/29/48
f 30/30/49 27/27/50 31/31/51 29/29/52
f 31/31/53 28/28/54 32/32/55 29/29/56
g default
v 3.000000 3.000000 3.000000
v 3.000000 3.000000 -3.000000
v -3.000000 3.000000 -3.000000
v -3.000000 3.000000 3.000000
v 3.000000 3.000000 -0.000000
v -3.000000 3.000000 -0.000000
v 0.000000 3.000000 -0.000000
v 3.000000 3.000000 1.500000
v 3.000000 3.000000 -1.500000
v 0.000000 3.000000 -3.000000
v -3.000000 3.000000 -1.500000
v -3.000000 3.000000 1.500000
v 0.000000 3.000000 3.000000
vt 0.022671 0.024213
vt 0.448847 0.024213
vt 0.448847 0.308330
vt 0.022671 0.308330
vt 0.235759 0.024213
vt 0.235759 0.308330
vt 0.235759 0.166272
vt 0.129215 0.024213
vt 0.342303 0.024213
vt 0.448847 0.166272
vt 0.342303 0.308330
vt 0.129215 0.308330
vt 0.022671 0.166272
vn 0.000000 1.000000 0.000000
vn 0.000000 1.000000 0.000000
vn 0.000000 1.000000 0.000000
vn 0.000000 1.000000 0.000000
vn 0.000000 1.000000 0.000000
vn 0.000000 1.000000 0.000000
vn 0.000000 1.000000 0.000000
vn 0.000000 1.000000 0.000000
vn 0.000000 1.000000 0.000000
vn 0.000000 1.000000 0.000000
vn 0.000000 1.000000 0.000000
vn 0.000000 1.000000 0.000000
vn 0.000000 1.000000 0.000000
vn 0.000000 1.000000 0.000000
vn 0.000000 1.000000 0.000000
vn 0.000000 1.000000 0.000000
vn 0.000000 1.000000 0.000000
vn 0.000000 1.000000 0.000000
vn 0.000000 1.000000 0.000000
vn 0.000000 1.000000 0.000000
vn 0.000000 1.000000 0.000000
vn 0.000000 1.000000 0.000000
vn 0.000000 1.000000 0.000000
vn 0.000000 1.000000 0.000000
s off
g WallCross polySurface13
usemtl blinn1SG
f 45/45/57 33/33/58 40/40/59 39/39/60
f 40/40/61 37/37/62 41/41/63 39/39/64
f 41/41/65 34/34/66 42/42/67 39/39/68
f 42/42/69 35/35/70 43/43/71 39/39/72
f 43/43/73 38/38/74 44/44/75 39/39/76
f 44/44/77 36/36/78 45/45/79 39/39/80
g default
v 3.000000 12.115881 1.000000
v 1.000000 12.115881 3.000000
v 1.000000 3.000000 3.000000
v 3.000000 3.000000 1.000000
v 2.000000 7.557940 2.000000
v 2.000000 12.115881 2.000000
v 1.000000 7.557940 3.000000
v 2.000000 3.000000 2.000000
v 3.000000 7.557940 1.000000
vt 0.368521 0.609917
vt 0.368521 0.870347
vt 0.200104 0.870347
vt 0.200104 0.609917
vt 0.031686 0.870347
vt 0.031686 0.609917
vt 0.200104 0.349486
vt 0.368521 0.349486
vt 0.031686 0.349486
vn 0.707107 0.000000 0.707107
vn 0.707107 0.000000 0.707107
vn 0.707107 0.000000 0.707107
vn 0.707107 0.000000 0.707107
vn 0.707107 -0.000000 0.707107
vn 0.707107 -0.000000 0.707107
vn 0.707107 -0.000000 0.707107
vn 0.707107 -0.000000 0.707107
vn 0.707107 0.000000 0.707107
vn 0.707107 0.000000 0.707107
vn 0.707107 0.000000 0.707107
vn 0.707107 0.000000 0.707107
vn 0.707107 0.000000 0.707107
vn 0.707107 0.000000 0.707107
vn 0.707107 0.000000 0.707107
vn 0.707107 0.000000 0.707107
s off
g WallCross polySurface18
usemtl blinn1SG
f 54/46/81 46/47/82 51/48/83 50/49/84
f 51/48/85 47/50/86 52/51/87 50/49/88
f 52/51/89 48/54/90 53/52/91 50/49/92
f 53/52/93 49/53/94 54/46/95 50/49/96
g default
v 3.000000 12.115881 1.000000
v 3.000000 12.950584 3.000000
v 1.000001 12.115881 3.000000
v 2.302562 12.368430 2.302562
v 3.000000 12.533233 2.000000
v 2.000000 12.533233 3.000000
v 2.000001 12.115881 2.000000
vt 0.172264 0.465433
vt 0.303154 0.465433
vt 0.283738 0.594875
vt 0.250739 0.510572
vt 0.237709 0.465433
vt 0.293446 0.530154
vt 0.228001 0.530154
vn 0.359417 -0.861185 0.359417
vn 0.359417 -0.861185 0.359417
vn 0.359417 -0.861185 0.359417
vn 0.359417 -0.861185 0.359417
vn 0.359418 -0.861184 0.359417
vn 0.359418 -0.861184 0.359417
vn 0.359418 -0.861184 0.359417
vn 0.359418 -0.861184 0.359417
vn 0.359418 -0.861184 0.359417
vn 0.359418 -0.861184 0.359417
vn 0.359418 -0.861184 0.359417
vn 0.359418 -0.861184 0.359417
s off
g WallCross polySurface19
usemtl blinn1SG
f 61/61/97 55/55/98 59/59/99 58/58/100
f 59/59/101 56/56/102 60/60/103 58/58/104
f 60/60/105 57/57/106 61/61/107 58/58/108
g default
v -3.000000 12.115881 -1.000000
v -1.000000 12.115881 -3.000000
v -1.000000 3.000000 -3.000000
v -3.000000 3.000000 -1.000000
v -2.000000 7.557940 -2.000000
v -2.000000 12.115881 -2.000000
v -1.000000 7.557940 -3.000000
v -2.000000 3.000000 -2.000000
v -3.000000 7.557940 -1.000000
vt 0.368521 0.870347
vt 0.031686 0.870347
vt 0.031686 0.349486
vt 0.368521 0.349486
vt 0.200104 0.609917
vt 0.200104 0.870347
vt 0.031686 0.609917
vt 0.200104 0.349486
vt 0.368521 0.609917
vn -0.707107 0.000000 -0.707107
vn -0.707107 0.000000 -0.707107
vn -0.707107 0.000000 -0.707107
vn -0.707107 0.000000 -0.707107
vn -0.707107 -0.000000 -0.707107
vn -0.707107 -0.000000 -0.707107
vn -0.707107 -0.000000 -0.707107
vn -0.707107 -0.000000 -0.707107
vn -0.707107 0.000000 -0.707107
vn -0.707107 0.000000 -0.707107
vn -0.707107 0.000000 -0.707107
vn -0.707107 0.000000 -0.707107
vn -0.707107 0.000000 -0.707107
vn -0.707107 0.000000 -0.707107
vn -0.707107 0.000000 -0.707107
vn -0.707107 0.000000 -0.707107
s off
g WallCross polySurface20
usemtl blinn1SG
f 70/70/109 62/62/110 67/67/111 66/66/112
f 67/67/113 63/63/114 68/68/115 66/66/116
f 68/68/117 64/64/118 69/69/119 66/66/120
f 69/69/121 65/65/122 70/70/123 66/66/124
g default
v -3.000000 12.115881 -1.000000
v -3.000000 12.950584 -3.000000
v -1.000001 12.115881 -3.000000
v -2.302562 12.368430 -2.302562
v -3.000000 12.533233 -2.000000
v -2.000000 12.533233 -3.000000
v -2.000001 12.115881 -2.000000
vt 0.172264 0.465433
vt 0.303154 0.465433
vt 0.283738 0.594875
vt 0.250739 0.510572
vt 0.237709 0.465433
vt 0.293446 0.530154
vt 0.228001 0.530154
vn -0.359417 -0.861185 -0.359417
vn -0.359417 -0.861185 -0.359417
vn -0.359417 -0.861185 -0.359417
vn -0.359417 -0.861185 -0.359417
vn -0.359418 -0.861184 -0.359417
vn -0.359418 -0.861184 -0.359417
vn -0.359418 -0.861184 -0.359417
vn -0.359418 -0.861184 -0.359417
vn -0.359418 -0.861184 -0.359417
vn -0.359418 -0.861184 -0.359417
vn -0.359418 -0.861184 -0.359417
vn -0.359418 -0.861184 -0.359417
s off
g WallCross polySurface21
usemtl blinn1SG
f 77/77/125 71/71/126 75/75/127 74/74/128
f 75/75/129 72/72/130 76/76/131 74/74/132
f 76/76/133 73/73/134 77/77/135 74/74/136
