# This file uses centimeters as units for non-parametric coordinates.

mtllib WallCorner.mtl
g default
v -3.000000 12.115881 1.000401
v 1.000400 12.115881 -3.000000
v 3.000000 12.926201 -3.000000
v -3.000000 12.926201 3.000000
v -0.423312 12.583115 -0.423312
v -0.999800 12.115881 -0.999800
v 2.000200 12.521041 -3.000000
v -0.000000 12.926201 -0.000000
v -3.000000 12.521041 2.000200
vt 0.268076 0.785951
vt 0.268311 0.432351
vt 0.370228 0.344045
vt 0.369875 0.874393
vt 0.326925 0.609190
vt 0.268194 0.609151
vt 0.319269 0.388198
vt 0.370052 0.609219
vt 0.318976 0.830172
vn 0.351595 -0.867619 0.351595
vn 0.351595 -0.867618 0.351595
vn 0.351595 -0.867619 0.351595
vn 0.351595 -0.867619 0.351595
vn 0.351595 -0.867618 0.351596
vn 0.351595 -0.867618 0.351596
vn 0.351595 -0.867618 0.351596
vn 0.351595 -0.867618 0.351596
vn 0.351595 -0.867619 0.351594
vn 0.351595 -0.867619 0.351594
vn 0.351595 -0.867619 0.351594
vn 0.351595 -0.867619 0.351594
vn 0.351595 -0.867619 0.351594
vn 0.351595 -0.867619 0.351594
vn 0.351595 -0.867619 0.351594
vn 0.351595 -0.867619 0.351594
s off
g polySurface1 WallCorner
usemtl WallCross_0000:blinn1SG
f 9/9/1 1/1/2 6/6/3 5/5/4
f 6/6/5 2/2/6 7/7/7 5/5/8
f 7/7/9 3/3/10 8/8/11 5/5/12
f 8/8/13 4/4/14 9/9/15 5/5/16
g default
v -3.000000 12.115881 1.000401
v -3.000000 3.000000 1.000000
v 1.000000 3.000000 -3.000000
v 1.000400 12.115881 -3.000000
v -0.999900 7.558028 -0.999900
v -3.000000 7.557940 1.000201
v -1.000000 3.000000 -1.000000
v 1.000200 7.557940 -3.000000
v -0.999800 12.115881 -0.999800
vt 0.029742 0.033727
vt 0.450395 0.033727
vt 0.450403 0.294763
vt 0.029750 0.294789
vt 0.240069 0.164252
vt 0.240069 0.033727
vt 0.450399 0.164245
vt 0.240077 0.294776
vt 0.029746 0.164258
vn 0.707107 -0.000031 0.707107
vn 0.707107 -0.000031 0.707107
vn 0.707107 -0.000031 0.707107
vn 0.707107 -0.000031 0.707107
vn 0.707107 -0.000031 0.707107
vn 0.707107 -0.000031 0.707107
vn 0.707107 -0.000031 0.707107
vn 0.707107 -0.000031 0.707107
vn 0.707107 -0.000031 0.707107
vn 0.707107 -0.000031 0.707107
vn 0.707107 -0.000031 0.707107
vn 0.707107 -0.000031 0.707107
vn 0.707107 -0.000031 0.707107
vn 0.707107 -0.000031 0.707107
vn 0.707107 -0.000031 0.707107
vn 0.707107 -0.000031 0.707107
s off
g WallCorner polySurface2
usemtl WallCross_0000:blinn1SG
f 18/18/17 10/10/18 15/15/19 14/14/20
f 15/15/21 11/11/22 16/16/23 14/14/24
f 16/16/25 12/12/26 17/17/27 14/14/28
f 17/17/29 13/13/30 18/18/31 14/14/32
g default
v 3.000000 3.000000 3.000000
v 3.000000 3.000000 -3.000000
v -3.000000 3.000000 -3.000000
v -3.000000 3.000000 3.000000
v 3.000000 3.000000 -0.000000
v -3.000000 3.000000 -0.000000
v 0.000000 3.000000 -0.000000
v 3.000000 3.000000 1.500000
v 3.000000 3.000000 -1.500000
v 0.000000 3.000000 -3.000000
v -3.000000 3.000000 -1.500000
v -3.000000 3.000000 1.500000
v 0.000000 3.000000 3.000000
vt 0.022671 0.024213
vt 0.448847 0.024213
vt 0.448847 0.308330
vt 0.022671 0.308330
vt 0.235759 0.024213
vt 0.235759 0.308330
vt 0.235759 0.166272
vt 0.129215 0.024213
vt 0.342303 0.024213
vt 0.448847 0.166272
vt 0.342303 0.308330
vt 0.129215 0.308330
vt 0.022671 0.166272
vn 0.000000 1.000000 0.000000
vn 0.000000 1.000000 0.000000
vn 0.000000 1.000000 0.000000
vn 0.000000 1.000000 0.000000
vn 0.000000 1.000000 0.000000
vn 0.000000 1.000000 0.000000
vn 0.000000 1.000000 0.000000
vn 0.000000 1.000000 0.000000
vn 0.000000 1.000000 0.000000
vn 0.000000 1.000000 0.000000
vn 0.000000 1.000000 0.000000
vn 0.000000 1.000000 0.000000
vn 0.000000 1.000000 0.000000
vn 0.000000 1.000000 0.000000
vn 0.000000 1.000000 0.000000
vn 0.000000 1.000000 0.000000
vn 0.000000 1.000000 0.000000
vn 0.000000 1.000000 0.000000
vn 0.000000 1.000000 0.000000
vn 0.000000 1.000000 0.000000
vn 0.000000 1.000000 0.000000
vn 0.000000 1.000000 0.000000
vn 0.000000 1.000000 0.000000
vn 0.000000 1.000000 0.000000
s off
g WallCorner WallCross_0000:polySurface13
usemtl WallCross_0000:blinn1SG
f 31/31/33 19/19/34 26/26/35 25/25/36
f 26/26/37 23/23/38 27/27/39 25/25/40
f 27/27/41 20/20/42 28/28/43 25/25/44
f 28/28/45 21/21/46 29/29/47 25/25/48
f 29/29/49 24/24/50 30/30/51 25/25/52
f 30/30/53 22/22/54 31/31/55 25/25/56
g default
v -3.000000 12.115881 -1.000000
v -1.000000 12.115881 -3.000000
v -1.000000 3.000000 -3.000000
v -3.000000 3.000000 -1.000000
v -2.000000 7.557940 -2.000000
v -2.000000 12.115881 -2.000000
v -1.000000 7.557940 -3.000000
v -2.000000 3.000000 -2.000000
v -3.000000 7.557940 -1.000000
vt 0.368521 0.870347
vt 0.031686 0.870347
vt 0.031686 0.349486
vt 0.368521 0.349486
vt 0.200104 0.609917
vt 0.200104 0.870347
vt 0.031686 0.609917
vt 0.200104 0.349486
vt 0.368521 0.609917
vn -0.707107 0.000000 -0.707107
vn -0.707107 0.000000 -0.707107
vn -0.707107 0.000000 -0.707107
vn -0.707107 0.000000 -0.707107
vn -0.707107 -0.000000 -0.707107
vn -0.707107 -0.000000 -0.707107
vn -0.707107 -0.000000 -0.707107
vn -0.707107 -0.000000 -0.707107
vn -0.707107 0.000000 -0.707107
vn -0.707107 0.000000 -0.707107
vn -0.707107 0.000000 -0.707107
vn -0.707107 0.000000 -0.707107
vn -0.707107 0.000000 -0.707107
vn -0.707107 0.000000 -0.707107
vn -0.707107 0.000000 -0.707107
vn -0.707107 0.000000 -0.707107
s off
g WallCorner WallCross_0000:polySurface20
usemtl WallCross_0000:blinn1SG
f 40/40/57 32/32/58 37/37/59 36/36/60
f 37/37/61 33/33/62 38/38/63 36/36/64
f 38/38/65 34/34/66 39/39/67 36/36/68
f 39/39/69 35/35/70 40/40/71 36/36/72
g default
v -3.000000 12.115881 -1.000000
v -3.000000 12.950584 -3.000000
v -1.000001 12.115881 -3.000000
v -2.302562 12.368430 -2.302562
v -3.000000 12.533233 -2.000000
v -2.000000 12.533233 -3.000000
v -2.000001 12.115881 -2.000000
vt 0.172264 0.465433
vt 0.303154 0.465433
vt 0.283738 0.594875
vt 0.250739 0.510572
vt 0.237709 0.465433
vt 0.293446 0.530154
vt 0.228001 0.530154
vn -0.359417 -0.861185 -0.359417
vn -0.359417 -0.861185 -0.359417
vn -0.359417 -0.861185 -0.359417
vn -0.359417 -0.861185 -0.359417
vn -0.359418 -0.861184 -0.359417
vn -0.359418 -0.861184 -0.359417
vn -0.359418 -0.861184 -0.359417
vn -0.359418 -0.861184 -0.359417
vn -0.359418 -0.861184 -0.359417
vn -0.359418 -0.861184 -0.359417
vn -0.359418 -0.861184 -0.359417
vn -0.359418 -0.861184 -0.359417
s off
g WallCorner WallCross_0000:polySurface21
usemtl WallCross_0000:blinn1SG
f 47/47/73 41/41/74 45/45/75 44/44/76
f 45/45/77 42/42/78 46/46/79 44/44/80
f 46/46/81 43/43/82 47/47/83 44/44/84
g default
v 3.000000 0.000000 -3.000000
v 3.000000 3.000000 -3.000000
v 3.000000 3.000000 3.000000
v 3.000000 0.000000 3.000000
vt 0.017397 0.021611
vt 0.454256 0.021611
vt 0.454256 0.312850
vt 0.017397 0.312850
vn 1.000000 0.000000 0.000000
vn 1.000000 0.000000 0.000000
vn 1.000000 0.000000 0.000000
vn 1.000000 0.000000 0.000000
s off
g WallCorner WallEnd_0001:polySurface17
usemtl WallCross_0000:blinn1SG
f 50/50/85 51/51/86 48/48/87 49/49/88
g default
v 3.000000 0.000000 3.000000
v 3.000000 3.000000 3.000000
v -3.000000 3.000000 3.000000
v -3.000000 0.000000 3.000000
vt 0.017397 0.021611
vt 0.454256 0.021611
vt 0.454256 0.312850
vt 0.017397 0.312850
vn 0.000000 0.000000 1.000000
vn 0.000000 0.000000 1.000000
vn 0.000000 0.000000 1.000000
vn 0.000000 0.000000 1.000000
s off
g WallCorner WallEnd_0001:polySurface18
usemtl WallCross_0000:blinn1SG
f 54/54/89 55/55/90 52/52/91 53/53/92
g default
v -3.000000 12.926201 3.000000
v 3.000000 12.926201 -3.000000
v 3.000000 12.926201 3.000000
vt 0.866432 0.313372
vt 0.587736 0.034676
vt 0.866432 0.034676
vn 0.000000 -1.000000 0.000000
vn 0.000000 -1.000000 0.000000
vn 0.000000 -1.000000 0.000000
s off
g WallCorner polySurface3
usemtl WallCross_0000:blinn1SG
f 56/56/93 57/57/94 58/58/95
